0
SECTION
2
HEADER
9
$INSUNITS
70
4
9
$ACADVER
1
AC1014
9
$HANDSEED
5
FFFF
0
ENDSEC
0
SECTION
2
TABLES
0
TABLE
2
VPORT
5
8
100
AcDbSymbolTable
0
ENDTAB
0
TABLE
2
LTYPE
5
5
100
AcDbSymbolTable
0
LTYPE
5
14
100
AcDbSymbolTableRecord
100
AcDbLinetypeTableRecord
2
BYBLOCK
70
0
0
LTYPE
5
15
100
AcDbSymbolTableRecord
100
AcDbLinetypeTableRecord
2
BYLAYER
70
0
0
ENDTAB
0
TABLE
2
LAYER
5
2
100
AcDbSymbolTable
70
2
0
LAYER
5
50
100
AcDbSymbolTableRecord
100
AcDbLayerTableRecord
2
0
70
0
6
CONTINUOUS
0
ENDTAB
0
TABLE
2
STYLE
5
3
100
AcDbSymbolTable
70
1
0
STYLE
5
11
100
AcDbSymbolTableRecord
100
AcDbTextStyleTableRecord
2
STANDARD
70
0
0
ENDTAB
0
TABLE
2
VIEW
5
6
100
AcDbSymbolTable
70
0
0
ENDTAB
0
TABLE
2
UCS
5
7
100
AcDbSymbolTable
70
0
0
ENDTAB
0
TABLE
2
APPID
5
9
100
AcDbSymbolTable
70
2
0
APPID
5
12
100
AcDbSymbolTableRecord
100
AcDbRegAppTableRecord
2
ACAD
70
0
0
ENDTAB
0
TABLE
2
DIMSTYLE
5
A
100
AcDbSymbolTable
70
1
0
ENDTAB
0
TABLE
2
BLOCK_RECORD
5
1
100
AcDbSymbolTable
70
1
0
BLOCK_RECORD
5
1F
100
AcDbSymbolTableRecord
100
AcDbBlockTableRecord
2
*MODEL_SPACE
0
BLOCK_RECORD
5
1B
100
AcDbSymbolTableRecord
100
AcDbBlockTableRecord
2
*PAPER_SPACE
0
ENDTAB
0
ENDSEC
0
SECTION
2
BLOCKS
0
BLOCK
5
20
100
AcDbEntity
100
AcDbBlockBegin
2
*MODEL_SPACE
0
ENDBLK
5
21
100
AcDbEntity
100
AcDbBlockEnd
0
BLOCK
5
1C
100
AcDbEntity
100
AcDbBlockBegin
2
*PAPER_SPACE
0
ENDBLK
5
1D
100
AcDbEntity
100
AcDbBlockEnd
0
ENDSEC
0
SECTION
2
ENTITIES
0
ARC
5
100
100
AcDbEntity
8
0
100
AcDbCircle
10
58.649970207444113
20
-52.124809582281344
30
0
40
1.6000000000000323
210
-0
220
0
230
1
100
AcDbArc
50
-89.999970746065898
51
0
0
LINE
5
101
100
AcDbEntity
8
0
100
AcDbLine
10
60.24997020744415
20
-52.124809580654826
30
0
11
60.249970101465387
21
52.124870029884427
31
0
0
ARC
5
102
100
AcDbEntity
8
0
100
AcDbCircle
10
58.64997010146535
20
52.124870028257874
30
0
40
1.6000000000000369
210
0
220
-0
230
1
100
AcDbArc
50
0
51
90.000019420342213
0
LINE
5
103
100
AcDbEntity
8
0
100
AcDbLine
10
58.649969559147088
20
53.724870028257797
30
0
11
-60.249970208968989
21
53.724829727251389
31
0
0
LINE
5
104
100
AcDbEntity
8
0
100
AcDbLine
10
-60.249970208968989
20
53.724829727251389
30
0
11
-60.249970208968989
21
-53.724870289911486
31
0
0
LINE
5
105
100
AcDbEntity
8
0
100
AcDbLine
10
-60.249970208968989
20
-53.724870289911486
30
0
11
58.649971024368064
21
-53.724809582281168
31
0
0
LINE
5
106
100
AcDbEntity
8
0
100
AcDbLine
10
13.569029791031006
20
-45.143870238853708
30
0
11
-0.51897020896895185
21
-45.143870238853708
31
0
0
LINE
5
107
100
AcDbEntity
8
0
100
AcDbLine
10
-0.51897020896895185
20
-45.143870238853708
30
0
11
-0.51897020896895185
21
-31.056870238853733
31
0
0
LINE
5
108
100
AcDbEntity
8
0
100
AcDbLine
10
-0.51897020896895185
20
-31.056870238853733
30
0
11
13.569029791031006
21
-31.056870238853733
31
0
0
LINE
5
109
100
AcDbEntity
8
0
100
AcDbLine
10
13.569029791031006
20
-31.056870238853733
30
0
11
13.569029791031006
21
-45.143870238853708
31
0
0
LINE
5
110
100
AcDbEntity
8
0
100
AcDbLine
10
-38.618970208968989
20
-26.093870238853718
30
0
11
-38.618970208968989
21
-12.005870238853724
31
0
0
LINE
5
111
100
AcDbEntity
8
0
100
AcDbLine
10
-38.618970208968989
20
-12.005870238853724
30
0
11
-24.531970208968996
21
-12.005870238853724
31
0
0
LINE
5
112
100
AcDbEntity
8
0
100
AcDbLine
10
-24.531970208968996
20
-12.005870238853724
30
0
11
-24.531970208968996
21
-26.093870238853718
31
0
0
LINE
5
113
100
AcDbEntity
8
0
100
AcDbLine
10
-24.531970208968996
20
-26.093870238853718
30
0
11
-38.618970208968989
21
-26.093870238853718
31
0
0
LINE
5
114
100
AcDbEntity
8
0
100
AcDbLine
10
-5.4819702089689848
20
-45.143870238853729
30
0
11
-19.568970208968981
21
-45.143870238853729
31
0
0
LINE
5
115
100
AcDbEntity
8
0
100
AcDbLine
10
-19.568970208968981
20
-45.143870238853729
30
0
11
-19.568970208968981
21
-31.056870238853715
31
0
0
LINE
5
116
100
AcDbEntity
8
0
100
AcDbLine
10
-19.568970208968981
20
-31.056870238853715
30
0
11
-5.4819702089689848
21
-31.056870238853715
31
0
0
LINE
5
117
100
AcDbEntity
8
0
100
AcDbLine
10
-5.4819702089689848
20
-31.056870238853715
30
0
11
-5.4819702089689848
21
-45.143870238853729
31
0
0
LINE
5
118
100
AcDbEntity
8
0
100
AcDbLine
10
-5.4819702089689848
20
-12.005870238853724
30
0
11
-5.4819702089689848
21
-26.093870238853718
31
0
0
LINE
5
119
100
AcDbEntity
8
0
100
AcDbLine
10
-5.4819702089689848
20
-26.093870238853718
30
0
11
-19.568970208968981
21
-26.093870238853718
31
0
0
LINE
5
120
100
AcDbEntity
8
0
100
AcDbLine
10
-19.568970208968981
20
-26.093870238853718
30
0
11
-19.568970208968981
21
-12.005870238853724
31
0
0
LINE
5
121
100
AcDbEntity
8
0
100
AcDbLine
10
-19.568970208968981
20
-12.005870238853724
30
0
11
-5.4819702089689848
21
-12.005870238853724
31
0
0
LINE
5
122
100
AcDbEntity
8
0
100
AcDbLine
10
-5.4819702089689848
20
-7.0438702388537244
30
0
11
-19.568970208968981
21
-7.0438702388537244
31
0
0
LINE
5
123
100
AcDbEntity
8
0
100
AcDbLine
10
-19.568970208968981
20
-7.0438702388537244
30
0
11
-19.568970208968981
21
7.0436297611462884
31
0
0
LINE
5
124
100
AcDbEntity
8
0
100
AcDbLine
10
-19.568970208968981
20
7.0436297611462884
30
0
11
-5.4819702089689848
21
7.0436297611462884
31
0
0
LINE
5
125
100
AcDbEntity
8
0
100
AcDbLine
10
-5.4819702089689848
20
7.0436297611462884
30
0
11
-5.4819702089689848
21
-7.0438702388537244
31
0
0
LINE
5
126
100
AcDbEntity
8
0
100
AcDbLine
10
-43.581970208968968
20
-26.093870238853718
30
0
11
-57.668970208968986
21
-26.093870238853718
31
0
0
LINE
5
127
100
AcDbEntity
8
0
100
AcDbLine
10
-57.668970208968986
20
-26.093870238853718
30
0
11
-57.668970208968986
21
-12.005870238853724
31
0
0
LINE
5
128
100
AcDbEntity
8
0
100
AcDbLine
10
-57.668970208968986
20
-12.005870238853724
30
0
11
-43.581970208968968
21
-12.005870238853724
31
0
0
LINE
5
129
100
AcDbEntity
8
0
100
AcDbLine
10
-43.581970208968968
20
-12.005870238853724
30
0
11
-43.581970208968968
21
-26.093870238853718
31
0
0
LINE
5
130
100
AcDbEntity
8
0
100
AcDbLine
10
18.531029791031024
20
-26.093870238853718
30
0
11
18.531029791031024
21
-12.005870238853724
31
0
0
LINE
5
131
100
AcDbEntity
8
0
100
AcDbLine
10
18.531029791031024
20
-12.005870238853724
30
0
11
32.618029791031056
21
-12.005870238853724
31
0
0
LINE
5
132
100
AcDbEntity
8
0
100
AcDbLine
10
32.618029791031056
20
-12.005870238853724
30
0
11
32.618029791031056
21
-26.093870238853718
31
0
0
LINE
5
133
100
AcDbEntity
8
0
100
AcDbLine
10
32.618029791031056
20
-26.093870238853718
30
0
11
18.531029791031024
21
-26.093870238853718
31
0
0
LINE
5
134
100
AcDbEntity
8
0
100
AcDbLine
10
18.531029791031024
20
-45.143870238853729
30
0
11
18.531029791031024
21
-31.056870238853715
31
0
0
LINE
5
135
100
AcDbEntity
8
0
100
AcDbLine
10
18.531029791031024
20
-31.056870238853715
30
0
11
32.618029791031056
21
-31.056870238853715
31
0
0
LINE
5
136
100
AcDbEntity
8
0
100
AcDbLine
10
32.618029791031056
20
-31.056870238853715
30
0
11
32.618029791031056
21
-45.143870238853729
31
0
0
LINE
5
137
100
AcDbEntity
8
0
100
AcDbLine
10
32.618029791031056
20
-45.143870238853729
30
0
11
18.531029791031024
21
-45.143870238853729
31
0
0
LINE
5
138
100
AcDbEntity
8
0
100
AcDbLine
10
-0.51897020896895185
20
-12.005870238853742
30
0
11
13.569029791031006
21
-12.005870238853742
31
0
0
LINE
5
139
100
AcDbEntity
8
0
100
AcDbLine
10
13.569029791031006
20
-12.005870238853742
30
0
11
13.569029791031006
21
-26.0938702388537
31
0
0
LINE
5
140
100
AcDbEntity
8
0
100
AcDbLine
10
13.569029791031006
20
-26.0938702388537
30
0
11
-0.51897020896895185
21
-26.0938702388537
31
0
0
LINE
5
141
100
AcDbEntity
8
0
100
AcDbLine
10
-0.51897020896895185
20
-26.0938702388537
30
0
11
-0.51897020896895185
21
-12.005870238853742
31
0
0
LINE
5
142
100
AcDbEntity
8
0
100
AcDbLine
10
-43.581970208968968
20
31.056129761146281
30
0
11
-57.668970208968986
21
31.056129761146281
31
0
0
LINE
5
143
100
AcDbEntity
8
0
100
AcDbLine
10
-57.668970208968986
20
31.056129761146281
30
0
11
-57.668970208968986
21
45.143629761146286
31
0
0
LINE
5
144
100
AcDbEntity
8
0
100
AcDbLine
10
-57.668970208968986
20
45.143629761146286
30
0
11
-43.581970208968968
21
45.143629761146286
31
0
0
LINE
5
145
100
AcDbEntity
8
0
100
AcDbLine
10
-43.581970208968968
20
45.143629761146286
30
0
11
-43.581970208968968
21
31.056129761146281
31
0
0
LINE
5
146
100
AcDbEntity
8
0
100
AcDbLine
10
18.531029791031024
20
31.056129761146281
30
0
11
18.531029791031024
21
45.143629761146286
31
0
0
LINE
5
147
100
AcDbEntity
8
0
100
AcDbLine
10
18.531029791031024
20
45.143629761146286
30
0
11
32.618029791031056
21
45.143629761146286
31
0
0
LINE
5
148
100
AcDbEntity
8
0
100
AcDbLine
10
32.618029791031056
20
45.143629761146286
30
0
11
32.618029791031056
21
31.056129761146281
31
0
0
LINE
5
149
100
AcDbEntity
8
0
100
AcDbLine
10
32.618029791031056
20
31.056129761146281
30
0
11
18.531029791031024
21
31.056129761146281
31
0
0
LINE
5
150
100
AcDbEntity
8
0
100
AcDbLine
10
18.531029791031024
20
7.0436297611462706
30
0
11
32.61802979103102
21
7.0436297611462706
31
0
0
LINE
5
151
100
AcDbEntity
8
0
100
AcDbLine
10
32.61802979103102
20
7.0436297611462706
30
0
11
32.61802979103102
21
-7.0438702388537067
31
0
0
LINE
5
152
100
AcDbEntity
8
0
100
AcDbLine
10
32.61802979103102
20
-7.0438702388537067
30
0
11
18.531029791031024
21
-7.0438702388537067
31
0
0
LINE
5
153
100
AcDbEntity
8
0
100
AcDbLine
10
18.531029791031024
20
-7.0438702388537067
30
0
11
18.531029791031024
21
7.0436297611462706
31
0
0
LINE
5
154
100
AcDbEntity
8
0
100
AcDbLine
10
-38.618970208968989
20
7.0436297611462884
30
0
11
-24.531970208968996
21
7.0436297611462884
31
0
0
LINE
5
155
100
AcDbEntity
8
0
100
AcDbLine
10
-24.531970208968996
20
7.0436297611462884
30
0
11
-24.531970208968996
21
-7.0438702388537244
31
0
0
LINE
5
156
100
AcDbEntity
8
0
100
AcDbLine
10
-24.531970208968996
20
-7.0438702388537244
30
0
11
-38.618970208968989
21
-7.0438702388537244
31
0
0
LINE
5
157
100
AcDbEntity
8
0
100
AcDbLine
10
-38.618970208968989
20
-7.0438702388537244
30
0
11
-38.618970208968989
21
7.0436297611462884
31
0
0
LINE
5
158
100
AcDbEntity
8
0
100
AcDbLine
10
-57.668970208968986
20
7.0436297611462884
30
0
11
-43.581970208968968
21
7.0436297611462884
31
0
0
LINE
5
159
100
AcDbEntity
8
0
100
AcDbLine
10
-43.581970208968968
20
7.0436297611462884
30
0
11
-43.581970208968968
21
-7.0438702388537244
31
0
0
LINE
5
160
100
AcDbEntity
8
0
100
AcDbLine
10
-43.581970208968968
20
-7.0438702388537244
30
0
11
-57.668970208968986
21
-7.0438702388537244
31
0
0
LINE
5
161
100
AcDbEntity
8
0
100
AcDbLine
10
-57.668970208968986
20
-7.0438702388537244
30
0
11
-57.668970208968986
21
7.0436297611462884
31
0
0
LINE
5
162
100
AcDbEntity
8
0
100
AcDbLine
10
-0.51897020896898738
20
-7.0438702388537244
30
0
11
-0.51897020896898738
21
7.0436297611462884
31
0
0
LINE
5
163
100
AcDbEntity
8
0
100
AcDbLine
10
-0.51897020896898738
20
7.0436297611462884
30
0
11
13.569029791031006
21
7.0436297611462884
31
0
0
LINE
5
164
100
AcDbEntity
8
0
100
AcDbLine
10
13.569029791031006
20
7.0436297611462884
30
0
11
13.569029791031006
21
-7.0438702388537244
31
0
0
LINE
5
165
100
AcDbEntity
8
0
100
AcDbLine
10
13.569029791031006
20
-7.0438702388537244
30
0
11
-0.51897020896898738
21
-7.0438702388537244
31
0
0
LINE
5
166
100
AcDbEntity
8
0
100
AcDbLine
10
-0.51897020896898738
20
31.056129761146281
30
0
11
-0.51897020896898738
21
45.143629761146286
31
0
0
LINE
5
167
100
AcDbEntity
8
0
100
AcDbLine
10
-0.51897020896898738
20
45.143629761146286
30
0
11
13.569029791031006
21
45.143629761146286
31
0
0
LINE
5
168
100
AcDbEntity
8
0
100
AcDbLine
10
13.569029791031006
20
45.143629761146286
30
0
11
13.569029791031006
21
31.056129761146281
31
0
0
LINE
5
169
100
AcDbEntity
8
0
100
AcDbLine
10
13.569029791031006
20
31.056129761146281
30
0
11
-0.51897020896898738
21
31.056129761146281
31
0
0
LINE
5
170
100
AcDbEntity
8
0
100
AcDbLine
10
37.581029791031035
20
-12.005870238853724
30
0
11
51.668029791031067
21
-12.005870238853724
31
0
0
LINE
5
171
100
AcDbEntity
8
0
100
AcDbLine
10
51.668029791031067
20
-12.005870238853724
30
0
11
51.668029791031067
21
-26.093870238853718
31
0
0
LINE
5
172
100
AcDbEntity
8
0
100
AcDbLine
10
51.668029791031067
20
-26.093870238853718
30
0
11
37.581029791031035
21
-26.093870238853718
31
0
0
LINE
5
173
100
AcDbEntity
8
0
100
AcDbLine
10
37.581029791031035
20
-26.093870238853718
30
0
11
37.581029791031035
21
-12.005870238853724
31
0
0
LINE
5
174
100
AcDbEntity
8
0
100
AcDbLine
10
37.581029791031035
20
7.0436297611462706
30
0
11
51.668029791031032
21
7.0436297611462706
31
0
0
LINE
5
175
100
AcDbEntity
8
0
100
AcDbLine
10
51.668029791031032
20
7.0436297611462706
30
0
11
51.668029791031032
21
-7.0438702388537067
31
0
0
LINE
5
176
100
AcDbEntity
8
0
100
AcDbLine
10
51.668029791031032
20
-7.0438702388537067
30
0
11
37.581029791031035
21
-7.0438702388537067
31
0
0
LINE
5
177
100
AcDbEntity
8
0
100
AcDbLine
10
37.581029791031035
20
-7.0438702388537067
30
0
11
37.581029791031035
21
7.0436297611462706
31
0
0
LINE
5
178
100
AcDbEntity
8
0
100
AcDbLine
10
-57.668970208968986
20
12.006129761146287
30
0
11
-57.668970208968986
21
26.093629761146282
31
0
0
LINE
5
179
100
AcDbEntity
8
0
100
AcDbLine
10
-57.668970208968986
20
26.093629761146282
30
0
11
-43.581970208968968
21
26.093629761146282
31
0
0
LINE
5
180
100
AcDbEntity
8
0
100
AcDbLine
10
-43.581970208968968
20
26.093629761146282
30
0
11
-43.581970208968968
21
12.006129761146287
31
0
0
LINE
5
181
100
AcDbEntity
8
0
100
AcDbLine
10
-43.581970208968968
20
12.006129761146287
30
0
11
-57.668970208968986
21
12.006129761146287
31
0
0
LINE
5
182
100
AcDbEntity
8
0
100
AcDbLine
10
51.668029791031067
20
45.143629761146286
30
0
11
51.668029791031067
21
31.056129761146281
31
0
0
LINE
5
183
100
AcDbEntity
8
0
100
AcDbLine
10
51.668029791031067
20
31.056129761146281
30
0
11
37.581029791031035
21
31.056129761146281
31
0
0
LINE
5
184
100
AcDbEntity
8
0
100
AcDbLine
10
37.581029791031035
20
31.056129761146281
30
0
11
37.581029791031035
21
45.143629761146286
31
0
0
LINE
5
185
100
AcDbEntity
8
0
100
AcDbLine
10
37.581029791031035
20
45.143629761146286
30
0
11
51.668029791031067
21
45.143629761146286
31
0
0
LINE
5
186
100
AcDbEntity
8
0
100
AcDbLine
10
-5.4819702089689848
20
45.143629761146286
30
0
11
-5.4819702089689848
21
31.056129761146281
31
0
0
LINE
5
187
100
AcDbEntity
8
0
100
AcDbLine
10
-5.4819702089689848
20
31.056129761146281
30
0
11
-19.568970208968981
21
31.056129761146281
31
0
0
LINE
5
188
100
AcDbEntity
8
0
100
AcDbLine
10
-19.568970208968981
20
31.056129761146281
30
0
11
-19.568970208968981
21
45.143629761146286
31
0
0
LINE
5
189
100
AcDbEntity
8
0
100
AcDbLine
10
-19.568970208968981
20
45.143629761146286
30
0
11
-5.4819702089689848
21
45.143629761146286
31
0
0
LINE
5
190
100
AcDbEntity
8
0
100
AcDbLine
10
13.569029791031006
20
26.093629761146282
30
0
11
13.569029791031006
21
12.006129761146287
31
0
0
LINE
5
191
100
AcDbEntity
8
0
100
AcDbLine
10
13.569029791031006
20
12.006129761146287
30
0
11
-0.51897020896898738
21
12.006129761146287
31
0
0
LINE
5
192
100
AcDbEntity
8
0
100
AcDbLine
10
-0.51897020896898738
20
12.006129761146287
30
0
11
-0.51897020896898738
21
26.093629761146282
31
0
0
LINE
5
193
100
AcDbEntity
8
0
100
AcDbLine
10
-0.51897020896898738
20
26.093629761146282
30
0
11
13.569029791031006
21
26.093629761146282
31
0
0
LINE
5
194
100
AcDbEntity
8
0
100
AcDbLine
10
51.668029791031067
20
-31.056870238853715
30
0
11
51.668029791031067
21
-45.143870238853729
31
0
0
LINE
5
195
100
AcDbEntity
8
0
100
AcDbLine
10
51.668029791031067
20
-45.143870238853729
30
0
11
37.581029791031035
21
-45.143870238853729
31
0
0
LINE
5
196
100
AcDbEntity
8
0
100
AcDbLine
10
37.581029791031035
20
-45.143870238853729
30
0
11
37.581029791031035
21
-31.056870238853715
31
0
0
LINE
5
197
100
AcDbEntity
8
0
100
AcDbLine
10
37.581029791031035
20
-31.056870238853715
30
0
11
51.668029791031067
21
-31.056870238853715
31
0
0
LINE
5
198
100
AcDbEntity
8
0
100
AcDbLine
10
-24.531970208968996
20
31.056129761146281
30
0
11
-38.618970208968989
21
31.056129761146281
31
0
0
LINE
5
199
100
AcDbEntity
8
0
100
AcDbLine
10
-38.618970208968989
20
31.056129761146281
30
0
11
-38.618970208968989
21
45.143629761146286
31
0
0
LINE
5
200
100
AcDbEntity
8
0
100
AcDbLine
10
-38.618970208968989
20
45.143629761146286
30
0
11
-24.531970208968996
21
45.143629761146286
31
0
0
LINE
5
201
100
AcDbEntity
8
0
100
AcDbLine
10
-24.531970208968996
20
45.143629761146286
30
0
11
-24.531970208968996
21
31.056129761146281
31
0
0
LINE
5
202
100
AcDbEntity
8
0
100
AcDbLine
10
-5.4819702089689848
20
26.093629761146282
30
0
11
-5.4819702089689848
21
12.006129761146287
31
0
0
LINE
5
203
100
AcDbEntity
8
0
100
AcDbLine
10
-5.4819702089689848
20
12.006129761146287
30
0
11
-19.568970208968981
21
12.006129761146287
31
0
0
LINE
5
204
100
AcDbEntity
8
0
100
AcDbLine
10
-19.568970208968981
20
12.006129761146287
30
0
11
-19.568970208968981
21
26.093629761146282
31
0
0
LINE
5
205
100
AcDbEntity
8
0
100
AcDbLine
10
-19.568970208968981
20
26.093629761146282
30
0
11
-5.4819702089689848
21
26.093629761146282
31
0
0
LINE
5
206
100
AcDbEntity
8
0
100
AcDbLine
10
-24.531970208968996
20
12.006129761146287
30
0
11
-38.618970208968989
21
12.006129761146287
31
0
0
LINE
5
207
100
AcDbEntity
8
0
100
AcDbLine
10
-38.618970208968989
20
12.006129761146287
30
0
11
-38.618970208968989
21
26.093629761146282
31
0
0
LINE
5
208
100
AcDbEntity
8
0
100
AcDbLine
10
-38.618970208968989
20
26.093629761146282
30
0
11
-24.531970208968996
21
26.093629761146282
31
0
0
LINE
5
209
100
AcDbEntity
8
0
100
AcDbLine
10
-24.531970208968996
20
26.093629761146282
30
0
11
-24.531970208968996
21
12.006129761146287
31
0
0
LINE
5
210
100
AcDbEntity
8
0
100
AcDbLine
10
51.668029791031067
20
12.006129761146287
30
0
11
37.581029791031035
21
12.006129761146287
31
0
0
LINE
5
211
100
AcDbEntity
8
0
100
AcDbLine
10
37.581029791031035
20
12.006129761146287
30
0
11
37.581029791031035
21
26.093629761146282
31
0
0
LINE
5
212
100
AcDbEntity
8
0
100
AcDbLine
10
37.581029791031035
20
26.093629761146282
30
0
11
51.668029791031067
21
26.093629761146282
31
0
0
LINE
5
213
100
AcDbEntity
8
0
100
AcDbLine
10
51.668029791031067
20
26.093629761146282
30
0
11
51.668029791031067
21
12.006129761146287
31
0
0
LINE
5
214
100
AcDbEntity
8
0
100
AcDbLine
10
18.531029791031024
20
12.006129761146287
30
0
11
18.531029791031024
21
26.093629761146282
31
0
0
LINE
5
215
100
AcDbEntity
8
0
100
AcDbLine
10
18.531029791031024
20
26.093629761146282
30
0
11
32.618029791031056
21
26.093629761146282
31
0
0
LINE
5
216
100
AcDbEntity
8
0
100
AcDbLine
10
32.618029791031056
20
26.093629761146282
30
0
11
32.618029791031056
21
12.006129761146287
31
0
0
LINE
5
217
100
AcDbEntity
8
0
100
AcDbLine
10
32.618029791031056
20
12.006129761146287
30
0
11
18.531029791031024
21
12.006129761146287
31
0
0
CIRCLE
5
218
100
AcDbEntity
8
0
100
AcDbCircle
10
57.149970311316665
20
50.624869931338608
30
0
40
0.90000000000001634
210
0
220
0
230
1
0
CIRCLE
5
219
100
AcDbEntity
8
0
100
AcDbCircle
10
57.149970414245743
20
-50.624809986173972
30
0
40
0.90000000000001634
210
0
220
0
230
1
0
CIRCLE
5
220
100
AcDbEntity
8
0
100
AcDbCircle
10
-54.889029585754265
20
-50.624809876175419
30
0
40
0.89999999999999858
210
0
220
0
230
1
0
CIRCLE
5
221
100
AcDbEntity
8
0
100
AcDbCircle
10
-54.889029688683344
20
50.624869904847657
30
0
40
0.89999999999999858
210
0
220
0
230
1
0
LINE
5
222
100
AcDbEntity
8
0
100
AcDbLine
10
-43.581970208968968
20
-31.056870238853715
30
0
11
-43.581970208968968
21
-45.144870238853713
31
0
0
LINE
5
223
100
AcDbEntity
8
0
100
AcDbLine
10
-43.581970208968968
20
-45.144870238853713
30
0
11
-57.668970208968986
21
-45.144870238853713
31
0
0
LINE
5
224
100
AcDbEntity
8
0
100
AcDbLine
10
-57.668970208968986
20
-45.144870238853713
30
0
11
-57.668970208968986
21
-31.056870238853715
31
0
0
LINE
5
225
100
AcDbEntity
8
0
100
AcDbLine
10
-57.668970208968986
20
-31.056870238853715
30
0
11
-43.581970208968968
21
-31.056870238853715
31
0
0
LINE
5
226
100
AcDbEntity
8
0
100
AcDbLine
10
-24.531970208968996
20
-45.144870238853713
30
0
11
-38.618970208968989
21
-45.144870238853713
31
0
0
LINE
5
227
100
AcDbEntity
8
0
100
AcDbLine
10
-38.618970208968989
20
-45.144870238853713
30
0
11
-38.618970208968989
21
-31.056870238853715
31
0
0
LINE
5
228
100
AcDbEntity
8
0
100
AcDbLine
10
-38.618970208968989
20
-31.056870238853715
30
0
11
-24.531970208968996
21
-31.056870238853715
31
0
0
LINE
5
229
100
AcDbEntity
8
0
100
AcDbLine
10
-24.531970208968996
20
-31.056870238853715
30
0
11
-24.531970208968996
21
-45.144870238853713
31
0
0
ENDSEC
0
SECTION
2
OBJECTS
0
DICTIONARY
5
C
100
AcDbDictionary
3
ACAD_GROUP
350
D
3
ACAD_MLINESTYLE
350
17
0
DICTIONARY
5
D
100
AcDbDictionary
0
DICTIONARY
5
1A
330
C
100
AcDbDictionary
0
DICTIONARY
5
17
100
AcDbDictionary
0
ENDSEC
0
EOF
