M48
; DRILL file {KiCad (6.0.0-rc1-306-g01eebd0b9d)} date Sun Feb 27 11:11:43 2022
; FORMAT={-:-/ absolute / inch / decimal}
; #@! TF.CreationDate,2022-02-27T11:11:43+00:00
; #@! TF.GenerationSoftware,Kicad,Pcbnew,(6.0.0-rc1-306-g01eebd0b9d)
; #@! TF.FileFunction,Plated,1,2,PTH
FMAT,2
INCH
; #@! TA.AperFunction,Plated,PTH,ViaDrill
T1C0.0118
; #@! TA.AperFunction,Plated,PTH,ComponentDrill
T2C0.0320
; #@! TA.AperFunction,Plated,PTH,ComponentDrill
T3C0.0394
; #@! TA.AperFunction,Plated,PTH,ComponentDrill
T4C0.0430
; #@! TA.AperFunction,Plated,PTH,ComponentDrill
T5C0.0472
; #@! TA.AperFunction,Plated,PTH,ComponentDrill
T6C0.0500
; #@! TA.AperFunction,Plated,PTH,ComponentDrill
T7C0.0591
; #@! TA.AperFunction,Plated,PTH,ComponentDrill
T8C0.0866
%
G90
G05
T1
X6.5197Y-2.3372
X6.8287Y-5.1679
X7.0787Y-2.0929
X7.0787Y-2.7929
X7.0787Y-3.0929
X7.0787Y-3.3679
X7.3287Y-3.5179
X7.3287Y-4.0679
X7.3287Y-4.5929
X7.3787Y-2.9179
X7.3787Y-3.1429
X7.5787Y-3.0929
X7.5787Y-3.1929
X7.5787Y-4.0679
X7.5787Y-4.5929
X7.8787Y-3.4429
X7.9287Y-3.5929
X7.9287Y-4.4116
X8.0334Y-2.3504
X8.0697Y-3.5929
X8.1428Y-2.3504
X8.1787Y-2.4679
X8.6697Y-2.3372
T2
X7.4348Y-3.5179
X7.5348Y-3.5179
X7.6348Y-3.5179
X7.7348Y-3.5179
T3
X6.5197Y-2.4803
X6.5197Y-2.7165
X6.5197Y-2.9528
X6.5197Y-3.189
X6.5197Y-3.4252
X6.5197Y-3.6614
X6.5197Y-3.7795
X6.5197Y-3.8976
X6.5197Y-4.1339
X6.5197Y-4.3701
X6.5197Y-4.6063
X6.5197Y-4.8425
X6.5197Y-5.0787
X6.6181Y-2.3622
X6.6181Y-2.5984
X6.6181Y-2.8346
X6.6181Y-3.0709
X6.6181Y-3.3071
X6.6181Y-3.5433
X6.6181Y-4.0157
X6.6181Y-4.252
X6.6181Y-4.4882
X6.6181Y-4.7244
X6.6181Y-4.9606
X6.8268Y-2.4803
X6.8268Y-2.7165
X6.8268Y-2.9528
X6.8268Y-3.189
X6.8268Y-3.4252
X6.8268Y-3.6614
X6.8268Y-3.7795
X6.8268Y-3.8976
X6.8268Y-4.1339
X6.8268Y-4.3701
X6.8268Y-4.6063
X6.8268Y-4.8425
X6.8268Y-5.0787
X6.9252Y-2.3622
X6.9252Y-2.5984
X6.9252Y-2.8346
X6.9252Y-3.0709
X6.9252Y-3.3071
X6.9252Y-3.5433
X6.9252Y-4.0157
X6.9252Y-4.252
X6.9252Y-4.4882
X6.9252Y-4.7244
X6.9252Y-4.9606
X6.9291Y-5.1614
X6.9291Y-5.4685
X7.0472Y-5.063
X7.0472Y-5.3701
X7.1654Y-5.1614
X7.1654Y-5.4685
X7.2835Y-5.063
X7.2835Y-5.3701
X7.4016Y-5.1614
X7.4016Y-5.4685
X7.5197Y-5.063
X7.5197Y-5.3701
X7.6378Y-5.063
X7.6378Y-5.3701
X7.7559Y-5.1614
X7.7559Y-5.4685
X7.874Y-5.063
X7.874Y-5.3701
X7.9921Y-5.1614
X7.9921Y-5.4685
X8.1102Y-5.063
X8.1102Y-5.3701
X8.2283Y-5.1614
X8.2283Y-5.4685
X8.2323Y-2.3622
X8.2323Y-2.5984
X8.2323Y-2.8346
X8.2323Y-3.0709
X8.2323Y-3.3071
X8.2323Y-3.5433
X8.2323Y-3.7795
X8.2323Y-4.0157
X8.2323Y-4.252
X8.2323Y-4.4882
X8.2323Y-4.7244
X8.2323Y-4.9606
X8.3307Y-2.4803
X8.3307Y-2.7165
X8.3307Y-2.9528
X8.3307Y-3.189
X8.3307Y-3.4252
X8.3307Y-3.6614
X8.3307Y-3.8976
X8.3307Y-4.1339
X8.3307Y-4.3701
X8.3307Y-4.6063
X8.3307Y-4.8425
X8.3307Y-5.0787
X8.5394Y-2.3622
X8.5394Y-2.5984
X8.5394Y-2.8346
X8.5394Y-3.0709
X8.5394Y-3.3071
X8.5394Y-3.5433
X8.5394Y-3.7795
X8.5394Y-4.0157
X8.5394Y-4.252
X8.5394Y-4.4882
X8.5394Y-4.7244
X8.5394Y-4.9606
X8.6378Y-2.4803
X8.6378Y-2.7165
X8.6378Y-2.9528
X8.6378Y-3.189
X8.6378Y-3.4252
X8.6378Y-3.6614
X8.6378Y-3.8976
X8.6378Y-4.1339
X8.6378Y-4.3701
X8.6378Y-4.6063
X8.6378Y-4.8425
X8.6378Y-5.0787
T4
X7.2766Y-2.1953
X7.2766Y-2.3953
X7.2766Y-2.5953
X7.2766Y-2.7953
X7.2766Y-2.9953
X7.2766Y-3.1953
X7.2946Y-2.2953
X7.2946Y-2.4953
X7.2946Y-2.6953
X7.2946Y-2.8953
X7.2946Y-3.0953
X7.2946Y-3.2953
X7.3856Y-3.3043
X7.4856Y-3.2863
X7.5856Y-3.3043
X7.6856Y-3.2863
X7.7856Y-3.3043
X7.8766Y-2.2953
X7.8766Y-2.4953
X7.8766Y-2.6953
X7.8766Y-2.8953
X7.8766Y-3.0953
X7.8766Y-3.2953
X7.8946Y-2.1953
X7.8946Y-2.3953
X7.8946Y-2.5953
X7.8946Y-2.7953
X7.8946Y-2.9953
X7.8946Y-3.1953
T5
X2.128Y-2.4715
X2.128Y-3.2215
X2.128Y-3.9715
X2.128Y-4.7215
X2.128Y-5.4715
X2.878Y-2.4715
X2.878Y-3.2215
X2.878Y-3.9715
X2.878Y-4.7215
X2.878Y-5.4715
X3.628Y-2.4715
X3.628Y-3.2215
X3.628Y-3.9715
X3.628Y-4.7215
X3.628Y-5.4715
X4.372Y-3.2215
X4.378Y-2.4715
X4.378Y-3.9715
X4.378Y-4.7215
X4.378Y-5.4715
X5.122Y-3.2215
X5.128Y-2.4715
X5.128Y-3.9715
X5.128Y-4.7215
X5.128Y-5.4715
X5.878Y-2.4715
X5.878Y-3.2215
X5.878Y-3.9715
X5.878Y-4.7215
X5.878Y-5.4715
X8.878Y-2.4715
X8.878Y-3.2215
X8.878Y-3.9715
X8.878Y-4.7215
X8.878Y-5.4715
X9.628Y-2.4715
X9.628Y-3.2215
X9.628Y-3.9715
X9.628Y-4.7215
X9.628Y-5.4715
X10.378Y-2.4715
X10.378Y-3.2215
X10.378Y-3.9715
X10.378Y-4.7215
X10.378Y-5.4715
X11.128Y-2.4715
X11.128Y-3.2215
X11.128Y-3.9715
X11.128Y-4.7215
X11.128Y-5.4715
X11.878Y-2.4715
X11.878Y-3.2215
X11.878Y-3.9715
X11.878Y-4.7215
X11.878Y-5.4715
X12.628Y-2.4715
X12.628Y-3.2215
X12.628Y-3.9715
X12.628Y-4.7215
X12.628Y-5.4715
T6
X2.3287Y-2.5502
X2.3287Y-3.3002
X2.3287Y-4.0502
X2.3287Y-4.8002
X2.3287Y-5.5502
X3.0787Y-2.5502
X3.0787Y-3.3002
X3.0787Y-4.0502
X3.0787Y-4.8002
X3.0787Y-5.5502
X3.8287Y-2.5502
X3.8287Y-3.3002
X3.8287Y-4.0502
X3.8287Y-4.8002
X3.8287Y-5.5502
X4.5728Y-3.3002
X4.5787Y-2.5502
X4.5787Y-4.0502
X4.5787Y-4.8002
X4.5787Y-5.5502
X5.3228Y-3.3002
X5.3287Y-2.5502
X5.3287Y-4.0502
X5.3287Y-4.8002
X5.3287Y-5.5502
X6.0787Y-2.5502
X6.0787Y-3.3002
X6.0787Y-4.0502
X6.0787Y-4.8002
X6.0787Y-5.5502
X9.0787Y-2.5502
X9.0787Y-3.3002
X9.0787Y-4.0502
X9.0787Y-4.8002
X9.0787Y-5.5502
X9.8287Y-2.5502
X9.8287Y-3.3002
X9.8287Y-4.0502
X9.8287Y-4.8002
X9.8287Y-5.5502
X10.5787Y-2.5502
X10.5787Y-3.3002
X10.5787Y-4.0502
X10.5787Y-4.8002
X10.5787Y-5.5502
X11.3287Y-2.5502
X11.3287Y-3.3002
X11.3287Y-4.0502
X11.3287Y-4.8002
X11.3287Y-5.5502
X12.0787Y-2.5502
X12.0787Y-3.3002
X12.0787Y-4.0502
X12.0787Y-4.8002
X12.0787Y-5.5502
X12.8287Y-2.5502
X12.8287Y-3.3002
X12.8287Y-4.0502
X12.8287Y-4.8002
X12.8287Y-5.5502
T7
X2.2287Y-2.5179
X2.2287Y-3.2679
X2.2287Y-4.0179
X2.2287Y-4.7679
X2.2287Y-5.5179
X2.4787Y-2.4179
X2.4787Y-3.1679
X2.4787Y-3.9179
X2.4787Y-4.6679
X2.4787Y-5.4179
X2.9787Y-2.5179
X2.9787Y-3.2679
X2.9787Y-4.0179
X2.9787Y-4.7679
X2.9787Y-5.5179
X3.2287Y-2.4179
X3.2287Y-3.1679
X3.2287Y-3.9179
X3.2287Y-4.6679
X3.2287Y-5.4179
X3.7287Y-2.5179
X3.7287Y-3.2679
X3.7287Y-4.0179
X3.7287Y-4.7679
X3.7287Y-5.5179
X3.9787Y-2.4179
X3.9787Y-3.1679
X3.9787Y-3.9179
X3.9787Y-4.6679
X3.9787Y-5.4179
X4.4728Y-3.2679
X4.4787Y-2.5179
X4.4787Y-4.0179
X4.4787Y-4.7679
X4.4787Y-5.5179
X4.7228Y-3.1679
X4.7287Y-2.4179
X4.7287Y-3.9179
X4.7287Y-4.6679
X4.7287Y-5.4179
X5.2228Y-3.2679
X5.2287Y-2.5179
X5.2287Y-4.0179
X5.2287Y-4.7679
X5.2287Y-5.5179
X5.4728Y-3.1679
X5.4787Y-2.4179
X5.4787Y-3.9179
X5.4787Y-4.6679
X5.4787Y-5.4179
X5.9787Y-2.5179
X5.9787Y-3.2679
X5.9787Y-4.0179
X5.9787Y-4.7679
X5.9787Y-5.5179
X6.2287Y-2.4179
X6.2287Y-3.1679
X6.2287Y-3.9179
X6.2287Y-4.6679
X6.2287Y-5.4179
X8.9787Y-2.5179
X8.9787Y-3.2679
X8.9787Y-4.0179
X8.9787Y-4.7679
X8.9787Y-5.5179
X9.2287Y-2.4179
X9.2287Y-3.1679
X9.2287Y-3.9179
X9.2287Y-4.6679
X9.2287Y-5.4179
X9.7287Y-2.5179
X9.7287Y-3.2679
X9.7287Y-4.0179
X9.7287Y-4.7679
X9.7287Y-5.5179
X9.9787Y-2.4179
X9.9787Y-3.1679
X9.9787Y-3.9179
X9.9787Y-4.6679
X9.9787Y-5.4179
X10.4787Y-2.5179
X10.4787Y-3.2679
X10.4787Y-4.0179
X10.4787Y-4.7679
X10.4787Y-5.5179
X10.7287Y-2.4179
X10.7287Y-3.1679
X10.7287Y-3.9179
X10.7287Y-4.6679
X10.7287Y-5.4179
X11.2287Y-2.5179
X11.2287Y-3.2679
X11.2287Y-4.0179
X11.2287Y-4.7679
X11.2287Y-5.5179
X11.4787Y-2.4179
X11.4787Y-3.1679
X11.4787Y-3.9179
X11.4787Y-4.6679
X11.4787Y-5.4179
X11.9787Y-2.5179
X11.9787Y-3.2679
X11.9787Y-4.0179
X11.9787Y-4.7679
X11.9787Y-5.5179
X12.2287Y-2.4179
X12.2287Y-3.1679
X12.2287Y-3.9179
X12.2287Y-4.6679
X12.2287Y-5.4179
X12.7287Y-2.5179
X12.7287Y-3.2679
X12.7287Y-4.0179
X12.7287Y-4.7679
X12.7287Y-5.5179
X12.9787Y-2.4179
X12.9787Y-3.1679
X12.9787Y-3.9179
X12.9787Y-4.6679
X12.9787Y-5.4179
T8
X6.6412Y-2.1353
X6.6412Y-5.4869
X8.5162Y-2.1353
X8.5162Y-5.4869
T8
G00X6.9997Y-3.819
M15
G01X7.0312Y-3.819
M16
G05
G00X9.4497Y-5.3183
M15
G01X9.4812Y-5.3183
M16
G05
T0
M30
