M48
; DRILL file {KiCad (6.0.0-rc1-306-g01eebd0b9d)} date Sun Feb 27 11:11:43 2022
; FORMAT={-:-/ absolute / inch / decimal}
; #@! TF.CreationDate,2022-02-27T11:11:43+00:00
; #@! TF.GenerationSoftware,Kicad,Pcbnew,(6.0.0-rc1-306-g01eebd0b9d)
; #@! TF.FileFunction,NonPlated,1,2,NPTH
FMAT,2
INCH
; #@! TA.AperFunction,NonPlated,NPTH,ComponentDrill
T1C0.0670
; #@! TA.AperFunction,NonPlated,NPTH,ComponentDrill
T2C0.0866
; #@! TA.AperFunction,NonPlated,NPTH,ComponentDrill
T3C0.1570
%
G90
G05
T1
X2.1122Y-2.3179
X2.1122Y-3.0679
X2.1122Y-3.8179
X2.1122Y-4.5679
X2.1122Y-5.3179
X2.1287Y-2.3179
X2.1287Y-3.0679
X2.1287Y-3.8179
X2.1287Y-4.5679
X2.1287Y-5.3179
X2.5287Y-2.3179
X2.5287Y-3.0679
X2.5287Y-3.8179
X2.5287Y-4.5679
X2.5287Y-5.3179
X2.5453Y-2.3179
X2.5453Y-3.0679
X2.5453Y-3.8179
X2.5453Y-4.5679
X2.5453Y-5.3179
X2.8622Y-2.3179
X2.8622Y-3.0679
X2.8622Y-3.8179
X2.8622Y-4.5679
X2.8622Y-5.3179
X2.8787Y-2.3179
X2.8787Y-3.0679
X2.8787Y-3.8179
X2.8787Y-4.5679
X2.8787Y-5.3179
X3.2787Y-2.3179
X3.2787Y-3.0679
X3.2787Y-3.8179
X3.2787Y-4.5679
X3.2787Y-5.3179
X3.2953Y-2.3179
X3.2953Y-3.0679
X3.2953Y-3.8179
X3.2953Y-4.5679
X3.2953Y-5.3179
X3.6122Y-2.3179
X3.6122Y-3.0679
X3.6122Y-3.8179
X3.6122Y-4.5679
X3.6122Y-5.3179
X3.6287Y-2.3179
X3.6287Y-3.0679
X3.6287Y-3.8179
X3.6287Y-4.5679
X3.6287Y-5.3179
X4.0287Y-2.3179
X4.0287Y-3.0679
X4.0287Y-3.8179
X4.0287Y-4.5679
X4.0287Y-5.3179
X4.0453Y-2.3179
X4.0453Y-3.0679
X4.0453Y-3.8179
X4.0453Y-4.5679
X4.0453Y-5.3179
X4.3563Y-3.0679
X4.3622Y-2.3179
X4.3622Y-3.8179
X4.3622Y-4.5679
X4.3622Y-5.3179
X4.3728Y-3.0679
X4.3787Y-2.3179
X4.3787Y-3.8179
X4.3787Y-4.5679
X4.3787Y-5.3179
X4.7728Y-3.0679
X4.7787Y-2.3179
X4.7787Y-3.8179
X4.7787Y-4.5679
X4.7787Y-5.3179
X4.7894Y-3.0679
X4.7953Y-2.3179
X4.7953Y-3.8179
X4.7953Y-4.5679
X4.7953Y-5.3179
X5.1063Y-3.0679
X5.1122Y-2.3179
X5.1122Y-3.8179
X5.1122Y-4.5679
X5.1122Y-5.3179
X5.1228Y-3.0679
X5.1287Y-2.3179
X5.1287Y-3.8179
X5.1287Y-4.5679
X5.1287Y-5.3179
X5.5228Y-3.0679
X5.5287Y-2.3179
X5.5287Y-3.8179
X5.5287Y-4.5679
X5.5287Y-5.3179
X5.5394Y-3.0679
X5.5453Y-2.3179
X5.5453Y-3.8179
X5.5453Y-4.5679
X5.5453Y-5.3179
X5.8622Y-2.3179
X5.8622Y-3.0679
X5.8622Y-3.8179
X5.8622Y-4.5679
X5.8622Y-5.3179
X5.8787Y-2.3179
X5.8787Y-3.0679
X5.8787Y-3.8179
X5.8787Y-4.5679
X5.8787Y-5.3179
X6.2787Y-2.3179
X6.2787Y-3.0679
X6.2787Y-3.8179
X6.2787Y-4.5679
X6.2787Y-5.3179
X6.2953Y-2.3179
X6.2953Y-3.0679
X6.2953Y-3.8179
X6.2953Y-4.5679
X6.2953Y-5.3179
X8.8622Y-2.3179
X8.8622Y-3.0679
X8.8622Y-3.8179
X8.8622Y-4.5679
X8.8622Y-5.3179
X8.8787Y-2.3179
X8.8787Y-3.0679
X8.8787Y-3.8179
X8.8787Y-4.5679
X8.8787Y-5.3179
X9.2787Y-2.3179
X9.2787Y-3.0679
X9.2787Y-3.8179
X9.2787Y-4.5679
X9.2787Y-5.3179
X9.2953Y-2.3179
X9.2953Y-3.0679
X9.2953Y-3.8179
X9.2953Y-4.5679
X9.2953Y-5.3179
X9.6122Y-2.3179
X9.6122Y-3.0679
X9.6122Y-3.8179
X9.6122Y-4.5679
X9.6122Y-5.3179
X9.6287Y-2.3179
X9.6287Y-3.0679
X9.6287Y-3.8179
X9.6287Y-4.5679
X9.6287Y-5.3179
X10.0287Y-2.3179
X10.0287Y-3.0679
X10.0287Y-3.8179
X10.0287Y-4.5679
X10.0287Y-5.3179
X10.0453Y-2.3179
X10.0453Y-3.0679
X10.0453Y-3.8179
X10.0453Y-4.5679
X10.0453Y-5.3179
X10.3622Y-2.3179
X10.3622Y-3.0679
X10.3622Y-3.8179
X10.3622Y-4.5679
X10.3622Y-5.3179
X10.3787Y-2.3179
X10.3787Y-3.0679
X10.3787Y-3.8179
X10.3787Y-4.5679
X10.3787Y-5.3179
X10.7787Y-2.3179
X10.7787Y-3.0679
X10.7787Y-3.8179
X10.7787Y-4.5679
X10.7787Y-5.3179
X10.7953Y-2.3179
X10.7953Y-3.0679
X10.7953Y-3.8179
X10.7953Y-4.5679
X10.7953Y-5.3179
X11.1122Y-2.3179
X11.1122Y-3.0679
X11.1122Y-3.8179
X11.1122Y-4.5679
X11.1122Y-5.3179
X11.1287Y-2.3179
X11.1287Y-3.0679
X11.1287Y-3.8179
X11.1287Y-4.5679
X11.1287Y-5.3179
X11.5287Y-2.3179
X11.5287Y-3.0679
X11.5287Y-3.8179
X11.5287Y-4.5679
X11.5287Y-5.3179
X11.5453Y-2.3179
X11.5453Y-3.0679
X11.5453Y-3.8179
X11.5453Y-4.5679
X11.5453Y-5.3179
X11.8622Y-2.3179
X11.8622Y-3.0679
X11.8622Y-3.8179
X11.8622Y-4.5679
X11.8622Y-5.3179
X11.8787Y-2.3179
X11.8787Y-3.0679
X11.8787Y-3.8179
X11.8787Y-4.5679
X11.8787Y-5.3179
X12.2787Y-2.3179
X12.2787Y-3.0679
X12.2787Y-3.8179
X12.2787Y-4.5679
X12.2787Y-5.3179
X12.2953Y-2.3179
X12.2953Y-3.0679
X12.2953Y-3.8179
X12.2953Y-4.5679
X12.2953Y-5.3179
X12.6122Y-2.3179
X12.6122Y-3.0679
X12.6122Y-3.8179
X12.6122Y-4.5679
X12.6122Y-5.3179
X12.6287Y-2.3179
X12.6287Y-3.0679
X12.6287Y-3.8179
X12.6287Y-4.5679
X12.6287Y-5.3179
X13.0287Y-2.3179
X13.0287Y-3.0679
X13.0287Y-3.8179
X13.0287Y-4.5679
X13.0287Y-5.3179
X13.0453Y-2.3179
X13.0453Y-3.0679
X13.0453Y-3.8179
X13.0453Y-4.5679
X13.0453Y-5.3179
T2
X7.0004Y-3.819
X7.0154Y-3.819
X7.0302Y-3.819
X9.4504Y-5.3183
X9.4655Y-5.3183
X9.4803Y-5.3183
T3
X2.3287Y-2.3179
X2.3287Y-3.0679
X2.3287Y-3.8179
X2.3287Y-4.5679
X2.3287Y-5.3179
X3.0787Y-2.3179
X3.0787Y-3.0679
X3.0787Y-3.8179
X3.0787Y-4.5679
X3.0787Y-5.3179
X3.8287Y-2.3179
X3.8287Y-3.0679
X3.8287Y-3.8179
X3.8287Y-4.5679
X3.8287Y-5.3179
X4.5728Y-3.0679
X4.5787Y-2.3179
X4.5787Y-3.8179
X4.5787Y-4.5679
X4.5787Y-5.3179
X5.3228Y-3.0679
X5.3287Y-2.3179
X5.3287Y-3.8179
X5.3287Y-4.5679
X5.3287Y-5.3179
X6.0787Y-2.3179
X6.0787Y-3.0679
X6.0787Y-3.8179
X6.0787Y-4.5679
X6.0787Y-5.3179
X9.0787Y-2.3179
X9.0787Y-3.0679
X9.0787Y-3.8179
X9.0787Y-4.5679
X9.0787Y-5.3179
X9.8287Y-2.3179
X9.8287Y-3.0679
X9.8287Y-3.8179
X9.8287Y-4.5679
X9.8287Y-5.3179
X10.5787Y-2.3179
X10.5787Y-3.0679
X10.5787Y-3.8179
X10.5787Y-4.5679
X10.5787Y-5.3179
X11.3287Y-2.3179
X11.3287Y-3.0679
X11.3287Y-3.8179
X11.3287Y-4.5679
X11.3287Y-5.3179
X12.0787Y-2.3179
X12.0787Y-3.0679
X12.0787Y-3.8179
X12.0787Y-4.5679
X12.0787Y-5.3179
X12.8287Y-2.3179
X12.8287Y-3.0679
X12.8287Y-3.8179
X12.8287Y-4.5679
X12.8287Y-5.3179
T0
M30
